<svg width="16" height="16" viewBox="0 0 16 16" fill="none" xmlns="http://www.w3.org/2000/svg">
<path d="M4.36332 5.442C4.29249 5.42326 4.22664 5.38918 4.17044 5.34218C4.11423 5.29518 4.06904 5.2364 4.03807 5.17C4.0071 5.1036 3.99109 5.0312 3.99119 4.95793C3.9913 4.88466 4.0075 4.81231 4.03866 4.746L5.14532 2.38933C5.18563 2.30303 5.24975 2.23004 5.33014 2.17895C5.41052 2.12785 5.50383 2.10078 5.59908 2.10092C5.69433 2.10106 5.78756 2.12841 5.8678 2.17974C5.94803 2.23107 6.01194 2.30425 6.05199 2.39067L6.53999 3.43667L6.59332 3.41867C7.74466 3.11031 8.96545 3.18911 10.0676 3.64291C11.1697 4.09671 12.0921 4.90033 12.6925 5.92996C13.2929 6.95959 13.5381 8.1581 13.3903 9.34081C13.2425 10.5235 12.7099 11.6248 11.8746 12.475C11.0392 13.3252 9.94745 13.8771 8.76752 14.0457C7.58759 14.2143 6.38496 13.9903 5.34492 13.408C4.30488 12.8258 3.48514 11.9178 3.01201 10.8238C2.53889 9.7298 2.43862 8.51059 2.72666 7.354C2.74259 7.29026 2.77092 7.23029 2.81003 7.17751C2.84914 7.12472 2.89827 7.08015 2.9546 7.04635C3.01094 7.01255 3.07338 6.99018 3.13836 6.98051C3.20334 6.97084 3.26959 6.97407 3.33332 6.99C3.39706 7.00593 3.45703 7.03426 3.50982 7.07338C3.5626 7.11249 3.60717 7.16161 3.64097 7.21795C3.67477 7.27428 3.69714 7.33672 3.70681 7.4017C3.71648 7.46668 3.71326 7.53293 3.69732 7.59667C3.46374 8.53542 3.54361 9.52481 3.92477 10.4139C4.30593 11.3031 4.96744 12.0431 5.80842 12.5212C6.6494 12.9993 7.62368 13.1892 8.58265 13.062C9.54162 12.9347 10.4327 12.4973 11.1198 11.8164C11.807 11.1355 12.2526 10.2486 12.3887 9.2908C12.5248 8.33304 12.3439 7.35705 11.8735 6.51171C11.4032 5.66636 10.6693 4.99805 9.78372 4.60872C8.89814 4.21939 7.90952 4.1304 6.96866 4.35533L7.46199 5.41067C7.50238 5.49686 7.51732 5.59278 7.50507 5.68717C7.49282 5.78156 7.45388 5.8705 7.39283 5.94352C7.33177 6.01654 7.25115 6.07062 7.16042 6.09941C7.0697 6.12819 6.97264 6.13047 6.88066 6.106L4.36332 5.442Z" fill="#1BC8B2"/>
</svg>
