<svg width="15" height="12" viewBox="0 0 15 12" fill="none" xmlns="http://www.w3.org/2000/svg">
<g clip-path="url(#clip0_20_872)">
<path d="M12.375 10.5H2.625C2.41875 10.5 2.25 10.6687 2.25 10.875V11.625C2.25 11.8313 2.41875 12 2.625 12H12.375C12.5813 12 12.75 11.8313 12.75 11.625V10.875C12.75 10.6687 12.5813 10.5 12.375 10.5ZM13.875 3C13.2539 3 12.75 3.50391 12.75 4.125C12.75 4.29141 12.7875 4.44609 12.8531 4.58906L11.1562 5.60625C10.7953 5.82188 10.3289 5.7 10.1203 5.33438L8.21016 1.99219C8.46094 1.78594 8.625 1.47656 8.625 1.125C8.625 0.503906 8.12109 0 7.5 0C6.87891 0 6.375 0.503906 6.375 1.125C6.375 1.47656 6.53906 1.78594 6.78984 1.99219L4.87969 5.33438C4.67109 5.7 4.20234 5.82188 3.84375 5.60625L2.14922 4.58906C2.2125 4.44844 2.25234 4.29141 2.25234 4.125C2.25234 3.50391 1.74844 3 1.12734 3C0.50625 3 0 3.50391 0 4.125C0 4.74609 0.503906 5.25 1.125 5.25C1.18594 5.25 1.24688 5.24062 1.30547 5.23125L3 9.75H12L13.6945 5.23125C13.7531 5.24062 13.8141 5.25 13.875 5.25C14.4961 5.25 15 4.74609 15 4.125C15 3.50391 14.4961 3 13.875 3Z" fill="#1BC8B2"/>
</g>
<defs>
<clipPath id="clip0_20_872">
<rect width="15" height="12" fill="white"/>
</clipPath>
</defs>
</svg>
