<svg width="14" height="15" viewBox="0 0 14 15" fill="none" xmlns="http://www.w3.org/2000/svg">
<path d="M6.99998 0.333313C10.682 0.333313 13.6666 3.31798 13.6666 6.99998C13.6666 10.682 10.682 13.6666 6.99998 13.6666C3.31798 13.6666 0.333313 10.682 0.333313 6.99998C0.333313 3.31798 3.31798 0.333313 6.99998 0.333313ZM6.99998 2.99998C6.82317 2.99998 6.6536 3.07022 6.52857 3.19524C6.40355 3.32027 6.33331 3.48984 6.33331 3.66665V6.99998C6.33335 7.17678 6.40361 7.34632 6.52865 7.47131L8.52865 9.47131C8.65438 9.59275 8.82278 9.65995 8.99758 9.65843C9.17238 9.65691 9.33959 9.5868 9.46319 9.46319C9.5868 9.33959 9.65691 9.17238 9.65843 8.99758C9.65995 8.82278 9.59275 8.65438 9.47131 8.52865L7.66665 6.72398V3.66665C7.66665 3.48984 7.59641 3.32027 7.47138 3.19524C7.34636 3.07022 7.17679 2.99998 6.99998 2.99998Z" fill="#1BC8B2"/>
</svg>
