<svg width="15" height="15" viewBox="0 0 15 15" fill="none" xmlns="http://www.w3.org/2000/svg">
<path d="M4.68574 12.8429C4.11431 12.8429 3.65717 12.4 3.65717 11.8286C3.65717 11.2572 4.11431 10.8 4.68574 10.8C5.24288 10.8 5.70003 11.2572 5.70003 11.8286C5.71431 12.3857 5.25717 12.8429 4.68574 12.8429ZM4.68574 9.68573C4.11431 9.68573 3.65717 9.24287 3.65717 8.67144C3.65717 8.10001 4.11431 7.64287 4.68574 7.64287C5.24288 7.64287 5.70003 8.10001 5.70003 8.67144C5.71431 9.22858 5.25717 9.68573 4.68574 9.68573ZM7.54288 9.10001C6.68574 9.10001 5.97145 8.40001 5.97145 7.52858V6.20001H1.91431C1.21431 6.20001 0.642883 6.77144 0.642883 7.48573V13.0286C0.642883 13.7286 1.21431 14.3 1.91431 14.3H7.44288C8.14288 14.3 8.71431 13.7286 8.71431 13.0286V9.10001H7.54288Z" fill="#1BC8B2"/>
<path d="M13.0857 0.700012H7.54286C6.84286 0.700012 6.25714 1.27144 6.25714 1.98573V7.52858C6.25714 8.22858 6.82857 8.8143 7.54286 8.8143H13.0714C13.7714 8.8143 14.3429 8.24287 14.3429 7.52858V1.98573C14.3571 1.28573 13.7857 0.700012 13.0857 0.700012ZM8.85714 7.35715C8.28571 7.35715 7.82857 6.9143 7.82857 6.34287C7.82857 5.77144 8.28571 5.3143 8.85714 5.3143C9.41428 5.3143 9.87143 5.77144 9.87143 6.34287C9.87143 6.90001 9.41428 7.35715 8.85714 7.35715ZM8.85714 4.20001C8.28571 4.20001 7.82857 3.75715 7.82857 3.18573C7.82857 2.6143 8.28571 2.15716 8.85714 2.15716C9.41428 2.15716 9.87143 2.6143 9.87143 3.18573C9.87143 3.74287 9.41428 4.20001 8.85714 4.20001ZM11.7714 7.35715C11.2 7.35715 10.7429 6.9143 10.7429 6.34287C10.7429 5.77144 11.2 5.3143 11.7714 5.3143C12.3286 5.3143 12.7857 5.77144 12.7857 6.34287C12.8 6.90001 12.3429 7.35715 11.7714 7.35715ZM11.7714 4.20001C11.2 4.20001 10.7429 3.75715 10.7429 3.18573C10.7429 2.6143 11.2 2.15716 11.7714 2.15716C12.3286 2.15716 12.7857 2.6143 12.7857 3.18573C12.8 3.74287 12.3429 4.20001 11.7714 4.20001Z" fill="#1BC8B2"/>
</svg>
