<svg width="16" height="16" viewBox="0 0 16 16" fill="none" xmlns="http://www.w3.org/2000/svg">
<path fill-rule="evenodd" clip-rule="evenodd" d="M1.79068 6.97466C1.63587 7.12943 1.51306 7.31318 1.42928 7.51542C1.34549 7.71766 1.30237 7.93442 1.30237 8.15333C1.30237 8.37223 1.34549 8.589 1.42928 8.79124C1.51306 8.99347 1.63587 9.17723 1.79068 9.332L3.67668 11.2173C3.92405 11.4645 4.24289 11.6276 4.58806 11.6835C4.93323 11.7394 5.28725 11.6854 5.60001 11.529C5.91277 11.3726 6.16842 11.1218 6.33078 10.8121C6.49314 10.5024 6.55397 10.1495 6.50468 9.80333L7.15334 9.15466L11.2053 13.8307C11.3729 14.0237 11.5783 14.1803 11.809 14.2905C12.0396 14.4007 12.2905 14.4623 12.5459 14.4713C12.8014 14.4804 13.056 14.4367 13.2938 14.3431C13.5317 14.2495 13.7477 14.1079 13.9285 13.9271C14.1092 13.7464 14.2508 13.5303 14.3444 13.2925C14.4381 13.0546 14.4817 12.8 14.4727 12.5446C14.4636 12.2891 14.4021 12.0382 14.2918 11.8076C14.1816 11.577 14.0251 11.3715 13.832 11.204L9.15668 7.15133L9.80468 6.50333C10.151 6.55281 10.5041 6.49206 10.814 6.32969C11.1238 6.16731 11.3748 5.91155 11.5312 5.59863C11.6876 5.28571 11.7416 4.93151 11.6855 4.5862C11.6294 4.24089 11.4661 3.92198 11.2187 3.67466L9.33334 1.79C9.08599 1.54249 8.76701 1.37912 8.42162 1.32303C8.07623 1.26695 7.72194 1.32099 7.40898 1.47751C7.09602 1.63403 6.84026 1.88508 6.67795 2.19507C6.51565 2.50507 6.45502 2.85829 6.50468 3.20466L3.20468 6.50399C2.94868 6.46754 2.68771 6.49114 2.44241 6.57295C2.19712 6.65475 1.97422 6.79251 1.79135 6.97533M8.62668 5.79666L5.79868 8.62466L4.38401 7.21066L7.21268 4.382L8.62668 5.79666ZM2.73335 8.38933C2.70235 8.35838 2.67776 8.32163 2.66097 8.28118C2.64418 8.24073 2.63552 8.19736 2.63549 8.15356C2.63546 8.10977 2.64406 8.06639 2.66079 8.02591C2.67752 7.98544 2.70206 7.94865 2.73301 7.91766C2.76396 7.88667 2.80071 7.86208 2.84116 7.84529C2.88161 7.8285 2.92498 7.81984 2.96878 7.81981C3.01257 7.81978 3.05595 7.82837 3.09643 7.84511C3.1369 7.86184 3.17369 7.88638 3.20468 7.91733L5.09068 9.80333C5.12252 9.83408 5.14791 9.87086 5.16538 9.91153C5.18285 9.9522 5.19204 9.99594 5.19243 10.0402C5.19281 10.0845 5.18438 10.1283 5.16762 10.1693C5.15086 10.2103 5.12611 10.2475 5.09481 10.2788C5.06351 10.3101 5.0263 10.3348 4.98533 10.3516C4.94436 10.3684 4.90047 10.3768 4.85621 10.3764C4.81195 10.376 4.76821 10.3668 4.72754 10.3494C4.68688 10.3319 4.65009 10.3065 4.61935 10.2747L2.73335 8.38933ZM7.91868 3.20333C7.88684 3.17258 7.86145 3.1358 7.84398 3.09513C7.82651 3.05446 7.81731 3.01072 7.81693 2.96646C7.81654 2.9222 7.82498 2.87831 7.84174 2.83734C7.8585 2.79638 7.88325 2.75916 7.91455 2.72786C7.94584 2.69657 7.98306 2.67182 8.02403 2.65505C8.06499 2.63829 8.10889 2.62986 8.15315 2.63025C8.19741 2.63063 8.24114 2.63983 8.28181 2.65729C8.32248 2.67476 8.35926 2.70016 8.39001 2.732L10.276 4.618C10.3078 4.64874 10.3332 4.68553 10.3507 4.72619C10.3682 4.76686 10.3774 4.8106 10.3778 4.85486C10.3781 4.89912 10.3697 4.94301 10.353 4.98398C10.3362 5.02495 10.3114 5.06216 10.2801 5.09346C10.2488 5.12476 10.2116 5.14951 10.1707 5.16627C10.1297 5.18303 10.0858 5.19146 10.0415 5.19108C9.99728 5.19069 9.95354 5.1815 9.91288 5.16403C9.87221 5.14656 9.83543 5.12117 9.80468 5.08933L7.91868 3.20333ZM12.2133 12.9573L8.20801 8.33599L8.33734 8.206L12.9593 12.2113C13.0126 12.2594 13.0555 12.3177 13.0854 12.3829C13.1154 12.448 13.1318 12.5186 13.1336 12.5903C13.1355 12.6619 13.1227 12.7333 13.0961 12.7998C13.0695 12.8664 13.0297 12.9269 12.979 12.9776C12.9283 13.0283 12.8678 13.0682 12.8012 13.0948C12.7346 13.1214 12.6633 13.1341 12.5916 13.1323C12.5199 13.1305 12.4494 13.1141 12.3842 13.0841C12.3191 13.0541 12.2607 13.0112 12.2127 12.958" fill="#1BC8B2"/>
</svg>
