<svg width="43" height="43" viewBox="0 0 43 43" fill="none" xmlns="http://www.w3.org/2000/svg">
<circle cx="21.3578" cy="21.3578" r="21.3578" transform="matrix(-1 0 0 1 42.7156 0)" fill="#1BC8B2"/>
<path d="M23.7645 14.6992C23.8485 14.6228 23.9142 14.5329 23.9578 14.4346C24.0014 14.3364 24.022 14.2317 24.0186 14.1266C24.0151 14.0215 23.9876 13.9181 23.9376 13.8221C23.8876 13.7261 23.8161 13.6396 23.7272 13.5674C23.6383 13.4951 23.5337 13.4387 23.4194 13.4012C23.305 13.3637 23.1833 13.346 23.061 13.349C22.9387 13.3519 22.8183 13.3756 22.7066 13.4185C22.5949 13.4615 22.4942 13.523 22.4102 13.5994L14.4931 20.8034C14.3296 20.952 14.2385 21.1488 14.2385 21.3533C14.2385 21.5578 14.3296 21.7546 14.4931 21.9032L22.4102 29.108C22.4936 29.1861 22.5943 29.2492 22.7064 29.2936C22.8185 29.3379 22.9397 29.3627 23.063 29.3665C23.1863 29.3702 23.3093 29.3529 23.4248 29.3155C23.5402 29.2781 23.6459 29.2213 23.7356 29.1485C23.8253 29.0757 23.8973 28.9883 23.9474 28.8914C23.9974 28.7945 24.0246 28.69 24.0273 28.584C24.03 28.4779 24.0081 28.3725 23.963 28.2738C23.9179 28.1751 23.8504 28.0851 23.7645 28.009L16.451 21.3533L23.7645 14.6992Z" fill="#041627"/>
</svg>
