<svg width="43" height="43" viewBox="0 0 43 43" fill="none" xmlns="http://www.w3.org/2000/svg">
<circle cx="21.6422" cy="21.3578" r="21.3578" fill="#1BC8B2"/>
<path d="M19.2355 14.6992C19.1515 14.6228 19.0858 14.5329 19.0422 14.4346C18.9986 14.3364 18.978 14.2317 18.9814 14.1266C18.9849 14.0215 19.0124 13.9181 19.0624 13.8221C19.1124 13.7261 19.1839 13.6396 19.2728 13.5674C19.3617 13.4951 19.4663 13.4387 19.5806 13.4012C19.695 13.3637 19.8167 13.346 19.939 13.349C20.0613 13.3519 20.1817 13.3756 20.2934 13.4185C20.4051 13.4615 20.5058 13.523 20.5898 13.5994L28.5069 20.8034C28.6704 20.952 28.7615 21.1488 28.7615 21.3533C28.7615 21.5578 28.6704 21.7546 28.5069 21.9032L20.5898 29.108C20.5064 29.1861 20.4057 29.2492 20.2936 29.2936C20.1815 29.3379 20.0603 29.3627 19.937 29.3665C19.8137 29.3702 19.6907 29.3529 19.5752 29.3155C19.4598 29.2781 19.3541 29.2213 19.2644 29.1485C19.1747 29.0757 19.1027 28.9883 19.0526 28.8914C19.0026 28.7945 18.9754 28.69 18.9727 28.584C18.97 28.4779 18.9919 28.3725 19.037 28.2738C19.0821 28.1751 19.1496 28.0851 19.2355 28.009L26.549 21.3533L19.2355 14.6992Z" fill="#041627"/>
</svg>
