<svg width="144" height="34" viewBox="0 0 144 34" fill="none" xmlns="http://www.w3.org/2000/svg">
<g filter="url(#filter0_di_23_1352)">
<path d="M27.6666 11.7833C27.7833 11.2 27.3166 10.5 26.7333 10.5L20.0833 9.56668L17.05 3.50001C16.9333 3.26668 16.8166 3.15001 16.5833 3.03334C16 2.68334 15.3 2.91668 14.95 3.50001L12.0333 9.56668L5.38331 10.5C5.03331 10.5 4.79998 10.6167 4.68331 10.85C4.21665 11.3167 4.21665 12.0167 4.68331 12.4833L9.46665 17.15L8.29998 23.8C8.29998 24.0333 8.29998 24.2667 8.41665 24.5C8.76665 25.0833 9.46665 25.3167 10.05 24.9667L16 21.8167L21.95 24.9667C22.0666 25.0833 22.3 25.0833 22.5333 25.0833H22.7666C23.35 24.9667 23.8166 24.3833 23.7 23.6833L22.5333 17.0333L27.3166 12.3667C27.55 12.25 27.6666 12.0167 27.6666 11.7833Z" fill="url(#paint0_linear_23_1352)"/>
</g>
<g filter="url(#filter1_di_23_1352)">
<path d="M55.6666 11.7833C55.7833 11.2 55.3166 10.5 54.7333 10.5L48.0833 9.56668L45.05 3.50001C44.9333 3.26668 44.8166 3.15001 44.5833 3.03334C44 2.68334 43.3 2.91668 42.95 3.50001L40.0333 9.56668L33.3833 10.5C33.0333 10.5 32.8 10.6167 32.6833 10.85C32.2166 11.3167 32.2166 12.0167 32.6833 12.4833L37.4666 17.15L36.3 23.8C36.3 24.0333 36.3 24.2667 36.4166 24.5C36.7666 25.0833 37.4666 25.3167 38.05 24.9667L44 21.8167L49.95 24.9667C50.0666 25.0833 50.3 25.0833 50.5333 25.0833H50.7666C51.35 24.9667 51.8166 24.3833 51.7 23.6833L50.5333 17.0333L55.3166 12.3667C55.55 12.25 55.6666 12.0167 55.6666 11.7833Z" fill="url(#paint1_linear_23_1352)"/>
</g>
<g filter="url(#filter2_di_23_1352)">
<path d="M83.6666 11.7833C83.7833 11.2 83.3166 10.5 82.7333 10.5L76.0833 9.56668L73.05 3.50001C72.9333 3.26668 72.8166 3.15001 72.5833 3.03334C72 2.68334 71.3 2.91668 70.95 3.50001L68.0333 9.56668L61.3833 10.5C61.0333 10.5 60.8 10.6167 60.6833 10.85C60.2166 11.3167 60.2166 12.0167 60.6833 12.4833L65.4666 17.15L64.3 23.8C64.3 24.0333 64.3 24.2667 64.4166 24.5C64.7666 25.0833 65.4666 25.3167 66.05 24.9667L72 21.8167L77.95 24.9667C78.0666 25.0833 78.3 25.0833 78.5333 25.0833H78.7666C79.35 24.9667 79.8166 24.3833 79.7 23.6833L78.5333 17.0333L83.3166 12.3667C83.55 12.25 83.6666 12.0167 83.6666 11.7833Z" fill="url(#paint2_linear_23_1352)"/>
</g>
<g filter="url(#filter3_di_23_1352)">
<path d="M111.667 11.7833C111.783 11.2 111.317 10.5 110.733 10.5L104.083 9.56668L101.05 3.50001C100.933 3.26668 100.817 3.15001 100.583 3.03334C100 2.68334 99.3 2.91668 98.95 3.50001L96.0333 9.56668L89.3833 10.5C89.0333 10.5 88.8 10.6167 88.6833 10.85C88.2166 11.3167 88.2166 12.0167 88.6833 12.4833L93.4666 17.15L92.3 23.8C92.3 24.0333 92.3 24.2667 92.4166 24.5C92.7666 25.0833 93.4666 25.3167 94.05 24.9667L100 21.8167L105.95 24.9667C106.067 25.0833 106.3 25.0833 106.533 25.0833H106.767C107.35 24.9667 107.817 24.3833 107.7 23.6833L106.533 17.0333L111.317 12.3667C111.55 12.25 111.667 12.0167 111.667 11.7833Z" fill="url(#paint3_linear_23_1352)"/>
</g>
<g filter="url(#filter4_di_23_1352)">
<path d="M139.667 11.7833C139.783 11.2 139.317 10.5 138.733 10.5L132.083 9.56668L129.05 3.50001C128.933 3.26668 128.817 3.15001 128.583 3.03334C128 2.68334 127.3 2.91668 126.95 3.50001L124.033 9.56668L117.383 10.5C117.033 10.5 116.8 10.6167 116.683 10.85C116.217 11.3167 116.217 12.0167 116.683 12.4833L121.467 17.15L120.3 23.8C120.3 24.0333 120.3 24.2667 120.417 24.5C120.767 25.0833 121.467 25.3167 122.05 24.9667L128 21.8167L133.95 24.9667C134.067 25.0833 134.3 25.0833 134.533 25.0833H134.767C135.35 24.9667 135.817 24.3833 135.7 23.6833L134.533 17.0333L139.317 12.3667C139.55 12.25 139.667 12.0167 139.667 11.7833Z" fill="url(#paint4_linear_23_1352)"/>
</g>
<defs>
<filter id="filter0_di_23_1352" x="-2" y="0" width="36" height="36" filterUnits="userSpaceOnUse" color-interpolation-filters="sRGB">
<feFlood flood-opacity="0" result="BackgroundImageFix"/>
<feColorMatrix in="SourceAlpha" type="matrix" values="0 0 0 0 0 0 0 0 0 0 0 0 0 0 0 0 0 0 127 0" result="hardAlpha"/>
<feOffset dy="4"/>
<feGaussianBlur stdDeviation="2"/>
<feComposite in2="hardAlpha" operator="out"/>
<feColorMatrix type="matrix" values="0 0 0 0 0 0 0 0 0 0 0 0 0 0 0 0 0 0 0.25 0"/>
<feBlend mode="normal" in2="BackgroundImageFix" result="effect1_dropShadow_23_1352"/>
<feBlend mode="normal" in="SourceGraphic" in2="effect1_dropShadow_23_1352" result="shape"/>
<feColorMatrix in="SourceAlpha" type="matrix" values="0 0 0 0 0 0 0 0 0 0 0 0 0 0 0 0 0 0 127 0" result="hardAlpha"/>
<feOffset dx="2" dy="2"/>
<feGaussianBlur stdDeviation="1"/>
<feComposite in2="hardAlpha" operator="arithmetic" k2="-1" k3="1"/>
<feColorMatrix type="matrix" values="0 0 0 0 1 0 0 0 0 1 0 0 0 0 1 0 0 0 0.29 0"/>
<feBlend mode="normal" in2="shape" result="effect2_innerShadow_23_1352"/>
</filter>
<filter id="filter1_di_23_1352" x="26" y="0" width="36" height="36" filterUnits="userSpaceOnUse" color-interpolation-filters="sRGB">
<feFlood flood-opacity="0" result="BackgroundImageFix"/>
<feColorMatrix in="SourceAlpha" type="matrix" values="0 0 0 0 0 0 0 0 0 0 0 0 0 0 0 0 0 0 127 0" result="hardAlpha"/>
<feOffset dy="4"/>
<feGaussianBlur stdDeviation="2"/>
<feComposite in2="hardAlpha" operator="out"/>
<feColorMatrix type="matrix" values="0 0 0 0 0 0 0 0 0 0 0 0 0 0 0 0 0 0 0.25 0"/>
<feBlend mode="normal" in2="BackgroundImageFix" result="effect1_dropShadow_23_1352"/>
<feBlend mode="normal" in="SourceGraphic" in2="effect1_dropShadow_23_1352" result="shape"/>
<feColorMatrix in="SourceAlpha" type="matrix" values="0 0 0 0 0 0 0 0 0 0 0 0 0 0 0 0 0 0 127 0" result="hardAlpha"/>
<feOffset dx="2" dy="2"/>
<feGaussianBlur stdDeviation="1"/>
<feComposite in2="hardAlpha" operator="arithmetic" k2="-1" k3="1"/>
<feColorMatrix type="matrix" values="0 0 0 0 1 0 0 0 0 1 0 0 0 0 1 0 0 0 0.29 0"/>
<feBlend mode="normal" in2="shape" result="effect2_innerShadow_23_1352"/>
</filter>
<filter id="filter2_di_23_1352" x="54" y="0" width="36" height="36" filterUnits="userSpaceOnUse" color-interpolation-filters="sRGB">
<feFlood flood-opacity="0" result="BackgroundImageFix"/>
<feColorMatrix in="SourceAlpha" type="matrix" values="0 0 0 0 0 0 0 0 0 0 0 0 0 0 0 0 0 0 127 0" result="hardAlpha"/>
<feOffset dy="4"/>
<feGaussianBlur stdDeviation="2"/>
<feComposite in2="hardAlpha" operator="out"/>
<feColorMatrix type="matrix" values="0 0 0 0 0 0 0 0 0 0 0 0 0 0 0 0 0 0 0.25 0"/>
<feBlend mode="normal" in2="BackgroundImageFix" result="effect1_dropShadow_23_1352"/>
<feBlend mode="normal" in="SourceGraphic" in2="effect1_dropShadow_23_1352" result="shape"/>
<feColorMatrix in="SourceAlpha" type="matrix" values="0 0 0 0 0 0 0 0 0 0 0 0 0 0 0 0 0 0 127 0" result="hardAlpha"/>
<feOffset dx="2" dy="2"/>
<feGaussianBlur stdDeviation="1"/>
<feComposite in2="hardAlpha" operator="arithmetic" k2="-1" k3="1"/>
<feColorMatrix type="matrix" values="0 0 0 0 1 0 0 0 0 1 0 0 0 0 1 0 0 0 0.29 0"/>
<feBlend mode="normal" in2="shape" result="effect2_innerShadow_23_1352"/>
</filter>
<filter id="filter3_di_23_1352" x="82" y="0" width="36" height="36" filterUnits="userSpaceOnUse" color-interpolation-filters="sRGB">
<feFlood flood-opacity="0" result="BackgroundImageFix"/>
<feColorMatrix in="SourceAlpha" type="matrix" values="0 0 0 0 0 0 0 0 0 0 0 0 0 0 0 0 0 0 127 0" result="hardAlpha"/>
<feOffset dy="4"/>
<feGaussianBlur stdDeviation="2"/>
<feComposite in2="hardAlpha" operator="out"/>
<feColorMatrix type="matrix" values="0 0 0 0 0 0 0 0 0 0 0 0 0 0 0 0 0 0 0.25 0"/>
<feBlend mode="normal" in2="BackgroundImageFix" result="effect1_dropShadow_23_1352"/>
<feBlend mode="normal" in="SourceGraphic" in2="effect1_dropShadow_23_1352" result="shape"/>
<feColorMatrix in="SourceAlpha" type="matrix" values="0 0 0 0 0 0 0 0 0 0 0 0 0 0 0 0 0 0 127 0" result="hardAlpha"/>
<feOffset dx="2" dy="2"/>
<feGaussianBlur stdDeviation="1"/>
<feComposite in2="hardAlpha" operator="arithmetic" k2="-1" k3="1"/>
<feColorMatrix type="matrix" values="0 0 0 0 1 0 0 0 0 1 0 0 0 0 1 0 0 0 0.29 0"/>
<feBlend mode="normal" in2="shape" result="effect2_innerShadow_23_1352"/>
</filter>
<filter id="filter4_di_23_1352" x="110" y="0" width="36" height="36" filterUnits="userSpaceOnUse" color-interpolation-filters="sRGB">
<feFlood flood-opacity="0" result="BackgroundImageFix"/>
<feColorMatrix in="SourceAlpha" type="matrix" values="0 0 0 0 0 0 0 0 0 0 0 0 0 0 0 0 0 0 127 0" result="hardAlpha"/>
<feOffset dy="4"/>
<feGaussianBlur stdDeviation="2"/>
<feComposite in2="hardAlpha" operator="out"/>
<feColorMatrix type="matrix" values="0 0 0 0 0 0 0 0 0 0 0 0 0 0 0 0 0 0 0.25 0"/>
<feBlend mode="normal" in2="BackgroundImageFix" result="effect1_dropShadow_23_1352"/>
<feBlend mode="normal" in="SourceGraphic" in2="effect1_dropShadow_23_1352" result="shape"/>
<feColorMatrix in="SourceAlpha" type="matrix" values="0 0 0 0 0 0 0 0 0 0 0 0 0 0 0 0 0 0 127 0" result="hardAlpha"/>
<feOffset dx="2" dy="2"/>
<feGaussianBlur stdDeviation="1"/>
<feComposite in2="hardAlpha" operator="arithmetic" k2="-1" k3="1"/>
<feColorMatrix type="matrix" values="0 0 0 0 1 0 0 0 0 1 0 0 0 0 1 0 0 0 0.29 0"/>
<feBlend mode="normal" in2="shape" result="effect2_innerShadow_23_1352"/>
</filter>
<linearGradient id="paint0_linear_23_1352" x1="4.33331" y1="14" x2="27.6846" y2="14" gradientUnits="userSpaceOnUse">
<stop stop-color="#FFBB00"/>
<stop offset="1" stop-color="#D38912"/>
</linearGradient>
<linearGradient id="paint1_linear_23_1352" x1="32.3333" y1="14" x2="55.6846" y2="14" gradientUnits="userSpaceOnUse">
<stop stop-color="#FFBB00"/>
<stop offset="1" stop-color="#D38912"/>
</linearGradient>
<linearGradient id="paint2_linear_23_1352" x1="60.3333" y1="14" x2="83.6846" y2="14" gradientUnits="userSpaceOnUse">
<stop stop-color="#FFBB00"/>
<stop offset="1" stop-color="#D38912"/>
</linearGradient>
<linearGradient id="paint3_linear_23_1352" x1="88.3333" y1="14" x2="111.685" y2="14" gradientUnits="userSpaceOnUse">
<stop stop-color="#FFBB00"/>
<stop offset="1" stop-color="#D38912"/>
</linearGradient>
<linearGradient id="paint4_linear_23_1352" x1="116.333" y1="14" x2="139.685" y2="14" gradientUnits="userSpaceOnUse">
<stop stop-color="#FFBB00"/>
<stop offset="1" stop-color="#D38912"/>
</linearGradient>
</defs>
</svg>
